<?xml version="1.0" encoding="utf-8"?>
<!-- Generator: Adobe Illustrator 26.3.1, SVG Export Plug-In . SVG Version: 6.00 Build 0)  -->
<svg version="1.1" id="Layer_1" xmlns="http://www.w3.org/2000/svg" xmlns:xlink="http://www.w3.org/1999/xlink" x="0px" y="0px"
	 viewBox="0 0 263.3 133.1" style="enable-background:new 0 0 263.3 133.1;" xml:space="preserve">
<style type="text/css">
	.st0{fill:#FFD833;}
	.st1{fill:#FFFFFF;}
</style>
<g>
	<path class="st0" d="M136.3,133.1c-31-0.3-56.9-3.7-81.8-12.8c-15.1-5.5-29.2-12.7-40.7-24.3C5.5,87.8-0.1,78.2,0,66.1
		c0.1-11.5,5.5-20.6,13.2-28.6c9.2-9.6,20.4-16.1,32.4-21.3C64.7,7.9,84.8,3.5,105.5,1.4c15.9-1.6,31.9-1.8,47.8-0.5
		c26,2.2,51.2,7.8,74.4,20.1c9.5,5,18.2,11.2,25.2,19.5c14,16.5,13.8,36.1-0.5,52.4c-9.5,10.8-21.4,18-34.3,23.7
		c-18.5,8.1-38,12.7-58.1,14.7C150.6,132.2,141.1,132.7,136.3,133.1z M128.4,10.7c-4.2,0.3-12,0.6-19.7,1.2
		c-18.4,1.4-36.3,5-53.6,11.5C42.6,28,30.9,34,21.4,43.5c-13.9,13.9-14.3,30.7-0.8,45c8,8.5,17.8,14.1,28.4,18.5
		c24.5,10.4,50.3,14.4,76.7,14.9c29.6,0.6,58.6-2.8,86.3-13.9c12.2-4.9,23.5-11.1,32.3-21.2c11.4-13.1,11.3-28.2-0.3-41.2
		c-9-10.2-20.6-16.4-33-21.3C185.6,14.4,159,11.1,128.4,10.7z"/>
	<path class="st1" d="M128.4,10.7c30.7,0.4,57.2,3.7,82.6,13.8c12.4,4.9,24,11.1,33,21.3c11.5,13,11.7,28.1,0.3,41.2
		c-8.8,10.1-20.1,16.3-32.3,21.2c-27.7,11.1-56.7,14.5-86.3,13.9c-26.4-0.5-52.2-4.6-76.7-14.9C38.4,102.6,28.6,97,20.6,88.6
		c-13.5-14.3-13.2-31.1,0.8-45C30.9,34,42.6,28,55.1,23.4c17.3-6.5,35.2-10.1,53.6-11.5C116.4,11.3,124.2,10.9,128.4,10.7z
		 M66.2,44.2c0,15.1,0,29.8,0,44.4c3.5,0,6.8,0,10.4,0c0-8.1,0-16,0-24.6c2.3,3.6,4.2,6.5,6.1,9.4c2.4,3.7,8.2,3.7,10.6,0.1
		c1.9-3,3.8-5.9,5.8-8.9c0.2,0.1,0.4,0.1,0.6,0.2c0,7.9,0,15.8,0,23.7c3.6,0,6.9,0,10.2,0c0-14.9,0-29.5,0-44.4
		c-2.4,0-4.7,0.2-6.9,0c-2.7-0.3-4.2,0.9-5.5,3.1c-3,5-6.2,9.7-9.4,14.8c-3.6-5.6-6.9-10.8-10.4-16c-0.5-0.8-1.6-1.7-2.5-1.7
		C72.2,44,69.3,44.2,66.2,44.2z M186.6,69.5c-0.2,0.1-0.4,0.1-0.6,0.2c-5.6-7.8-11.2-15.7-16.9-23.5c-0.6-0.8-1.5-1.9-2.4-1.9
		c-3.1-0.2-6.2-0.1-9.3-0.1c0,15.1,0,29.8,0,44.4c3.6,0,7,0,10.6,0c0-8.5,0-16.8,0-25.6c6,8.3,11.6,16.2,17.3,24
		c0.5,0.8,1.4,1.7,2.2,1.8c3.1,0.2,6.2,0.1,9.4,0.1c0-15,0-29.6,0-44.4c-3.5,0-6.8,0-10.3,0C186.6,52.8,186.6,61.2,186.6,69.5z
		 M128.5,54.9c0,11.5,0,22.5,0,33.7c3.5,0,6.8,0,10.4,0c0-11.3,0-22.4,0-33.8c4.6,0,8.8,0,13.2,0c0-3.6,0-6.9,0-10.4
		c-12.4,0-24.7,0-36.9,0c0,3.6,0,7,0,10.6C119.7,54.9,123.9,54.9,128.5,54.9z"/>
	<path class="st0" d="M66.2,44.2c3.1,0,6-0.1,8.9,0.1c0.9,0.1,1.9,0.9,2.5,1.7C81,51.2,84.4,56.4,88,62c3.3-5.1,6.5-9.9,9.4-14.8
		c1.3-2.2,2.8-3.4,5.5-3.1c2.2,0.2,4.4,0,6.9,0c0,14.9,0,29.6,0,44.4c-3.4,0-6.6,0-10.2,0c0-7.9,0-15.8,0-23.7
		c-0.2-0.1-0.4-0.1-0.6-0.2c-1.9,3-3.8,5.9-5.8,8.9c-2.4,3.6-8.2,3.6-10.6-0.1c-1.9-2.9-3.8-5.9-6.1-9.4c0,8.6,0,16.5,0,24.6
		c-3.5,0-6.8,0-10.4,0C66.2,73.9,66.2,59.2,66.2,44.2z"/>
	<path class="st0" d="M186.6,69.5c0-8.3,0-16.7,0-25.2c3.5,0,6.8,0,10.3,0c0,14.8,0,29.4,0,44.4c-3.2,0-6.3,0.1-9.4-0.1
		c-0.8-0.1-1.6-1-2.2-1.8c-5.7-7.8-11.3-15.7-17.3-24c0,8.8,0,17.1,0,25.6c-3.6,0-7,0-10.6,0c0-14.6,0-29.3,0-44.4
		c3.2,0,6.3-0.1,9.3,0.1c0.8,0.1,1.8,1.1,2.4,1.9c5.7,7.8,11.3,15.7,16.9,23.5C186.2,69.6,186.4,69.6,186.6,69.5z"/>
	<path class="st0" d="M128.5,54.9c-4.7,0-8.9,0-13.3,0c0-3.6,0-6.9,0-10.6c12.2,0,24.5,0,36.9,0c0,3.5,0,6.9,0,10.4
		c-4.4,0-8.6,0-13.2,0c0,11.3,0,22.5,0,33.8c-3.6,0-6.9,0-10.4,0C128.5,77.5,128.5,66.4,128.5,54.9z"/>
</g>
</svg>
