<?xml version="1.0" encoding="utf-8"?>
<!-- Generator: Adobe Illustrator 26.3.1, SVG Export Plug-In . SVG Version: 6.00 Build 0)  -->
<svg version="1.1" id="Layer_1" xmlns="http://www.w3.org/2000/svg" xmlns:xlink="http://www.w3.org/1999/xlink" x="0px" y="0px"
	 viewBox="0 0 213.3 213.5" style="enable-background:new 0 0 213.3 213.5;" xml:space="preserve">
<style type="text/css">
	.st0{fill:#C0D42F;}
</style>
<g>
	<path class="st0" d="M7.7,137.5c-2.2-0.6-6.2,1.9-7.3-2.1c-1.2-4.3,3.3-4.7,5.9-6c12.3-6.2,24.6-12.3,37-18.4
		c1.9-0.9,4.3-1.7,4.2-4.3c-0.1-2.6-2.4-3.3-4.4-4.2C30.1,96.1,17.1,89.7,4.2,83.3c-2-1-4.8-1.9-4.1-4.8c0.7-3.2,3.6-2.9,6.1-2.6
		c2.2,0.2,4.3,0.8,6.4,0.6c14.3-1.5,25.5,4.6,35.5,14.2c4.9,4.7,10.5,8.6,15.9,12.8c3.2,2.5,3.1,4.7,0,7.2c-10,7.9-20,15.9-30,23.9
		c-1.8,1.4-3.9,1.7-6.1,1.9C21.4,136.7,14.8,137.1,7.7,137.5z"/>
	<path class="st0" d="M205.5,137.6c-3.1-0.3-5.8-1-8.4-0.7c-11.7,1.2-20.7-3.9-28.9-11.5c-5.9-5.4-12.4-10-18.6-15
		c-3.9-3.1-3.9-4.7,0-7.8c9.6-7.7,19.2-15.3,28.9-23c1.4-1.1,2.9-2.1,4.9-2.2c8.3-0.5,16.6-1.2,24.8-1.8c2.3-0.2,4.5,0.2,5.1,2.8
		c0.5,2.4-1.5,3.4-3.3,4.3c-13.2,6.5-26.5,13.1-39.7,19.6c-1.9,1-4.2,1.7-4.2,4.3c0,2.6,2.4,3.4,4.3,4.3c12.3,6.1,24.7,12.1,37,18.3
		c2.5,1.3,6.7,1.8,5.9,5.6C212.2,139.6,207.8,136.7,205.5,137.6z"/>
	<path class="st0" d="M137.5,207.9c0-0.4,0,0.1,0,0.6c0.1,2.1,0.1,4.2-2.4,4.8c-2.5,0.6-3.6-1.2-4.5-3c-6-12.1-11.9-24.1-17.9-36.2
		c-0.7-1.3-1.3-2.7-2-4c-0.9-1.8-1.6-3.8-4.1-3.9c-2.5-0.1-3.3,1.9-4.2,3.7c-3.7,7.4-7.4,14.9-11,22.3c-2.9,6-5.9,11.9-8.8,17.9
		c-1,2.1-2.2,4-4.9,3.1c-2.4-0.8-2.3-3-2.2-5c0.6-8,1.2-15.9,1.7-23.9c0.1-2.1,1-3.8,2.3-5.4c7.7-9.6,15.3-19.3,23-28.9
		c3.5-4.3,4.9-4.3,8.4,0.1c7.4,9.2,14.6,18.5,22.1,27.7c1.8,2.2,2.7,4.5,2.9,7.2C136.4,192.4,137,199.7,137.5,207.9z"/>
	<path class="st0" d="M137.5,7.6c-0.2,2.4-0.9,4.8-0.6,7c1.4,13-4.4,22.9-12.8,32c-5.1,5.5-9.4,11.6-14,17.5c-2.5,3.2-4.8,3.2-7.2,0
		C95,54.2,87,44.2,79.1,34.2c-1-1.2-1.5-2.6-1.6-4.1c-0.6-8.3-1.2-16.6-1.8-24.9c-0.2-2.3,0.1-4.6,2.8-5.1c2.4-0.5,3.4,1.5,4.3,3.3
		c6.4,13.1,12.9,26.2,19.4,39.3c1,2,1.7,4.7,4.6,4.7c2.9,0,3.5-2.7,4.5-4.7c6.1-12.3,12.1-24.7,18.3-37.1c1.2-2.4,1.8-6.2,5.4-5.5
		C139.1,1,137.1,5,137.5,7.6z"/>
	<path class="st0" d="M120.6,125.4c-0.3-0.1-0.6-0.2-0.9-0.3c-8.6-3.9-17.2-3.7-25.9-0.1c-4.1,1.7-6.3-0.8-5.3-5.2
		c0.1-0.6,0.2-1.3,0.5-1.9c3.2-7.4,3.4-14.7,0.1-22.1c-0.9-2-2-4.5,0.1-6.6c2-2.1,4.5-1.1,6.5-0.2c7.6,3.3,15,3.1,22.6-0.1
		c1.9-0.8,4.2-1.6,6.1,0.3c1.9,1.9,1.1,4.2,0.2,6.1c-3.7,8.1-2.8,16,0.2,24.1C126.2,123.4,124.3,125.8,120.6,125.4z"/>
	<path class="st0" d="M79.3,75.8c0,2.3-1.5,3.8-4.6,3.5c-4.8-0.5-9.5-1.1-14.3-1.7c-2-0.2-3.3-1.4-4.3-3c-9-13.5-18-27-27.1-40.6
		c-1.1-1.7-2.1-3.5-0.1-5.4c2-1.9,3.7-0.6,5.4,0.5C47.6,38,60.9,47,74.3,55.9c1.9,1.3,3.1,2.8,3.4,5.2
		C78.1,65.7,78.6,70.3,79.3,75.8z"/>
	<path class="st0" d="M79.2,137.9c-0.6,5.5-1.2,10.6-1.9,15.7c-0.3,1.9-1.8,3-3.3,4.1c-13.1,8.7-26.2,17.6-39.4,26.3
		c-1.8,1.2-3.8,2.6-5.9,0.8c-2.4-2.2-0.6-4.3,0.7-6.2c8.7-13.2,17.5-26.3,26.2-39.4c1-1.6,2.2-3,4.2-3.3c5.1-0.6,10.2-1.2,15.4-1.6
		C78,134.1,79.2,135.7,79.2,137.9z"/>
	<path class="st0" d="M134.3,141.3c-0.5-6.7-0.1-7.3,6.6-6.7c3.6,0.3,7.3,0.8,10.9,1.2c2.5,0.3,4.3,1.4,5.7,3.6
		c8.7,13.2,17.5,26.3,26.3,39.4c1.3,2,2.9,4.1,0.6,6.2c-2,1.8-4,0.3-5.9-0.9c-13.1-8.8-26.2-17.6-39.4-26.3c-2.1-1.4-3.4-3-3.6-5.6
		C135.1,148.5,134.7,144.9,134.3,141.3z"/>
	<path class="st0" d="M134,76.1c0.7-6,1.2-10.4,1.6-14.9c0.2-2.6,1.7-4.2,3.7-5.5c13.1-8.7,26.2-17.5,39.3-26.2
		c1.7-1.2,3.6-2.9,5.8-0.8c2.3,2.2,0.7,4.2-0.6,6.2c-8.6,13-17.3,25.9-25.9,38.9c-1.7,2.6-3.7,3.9-6.8,4.1c-4,0.2-7.9,0.9-11.8,1.4
		C135.6,79.7,133.8,78.3,134,76.1z"/>
</g>
</svg>
