<?xml version="1.0" encoding="UTF-8"?><svg id="Layer_1" xmlns="http://www.w3.org/2000/svg" viewBox="0 0 360 96.23"><defs><style>.cls-1{fill:#01aaab;}</style></defs><path class="cls-1" d="M127.14,76.75c-.55,0-.87-.19-.87-.55,0-.19,.15-.44,.47-.69,4.27-3.46,32.56-26.28,36.87-29.83,7.5-6.04,9.08-8.99,9.08-13.28,0-2.67-1.25-5.25-3.14-6.82-2.27-1.93-5.66-2.97-11.15-2.97h-48.18v.77c0,2.49,.54,5.21,1.78,7,1.95,2.79,5.62,4.4,10.59,4.4h31.63c.56,0,.87,.17,.87,.45,0,.25-.14,.41-.49,.68-4.47,3.63-30.59,24.7-37.09,29.9-7.52,6.04-9.02,9.05-9.02,13.32,0,2.65,1.25,5.23,3.14,6.79,2.27,1.94,5.67,3,11.18,3h50.4v-.48c0-3.58-1.02-6.66-3.15-8.6-2.46-2.27-5.65-3.1-11.61-3.1h-31.31Zm218.99-5.12c-.16,0-.29-.09-.42-.27-9.99-13.01-28.33-36.98-32.31-42.2-4.2-5.48-7.5-7.28-11.84-7.28-3.22,0-5.81,1.18-7.6,3.08-2,2.13-3,5.43-3,9.19v42.88c0,4.28,1.11,7.21,3.27,9.36,2.26,2.28,5.49,3.55,9.4,3.55,.31,0,.51,0,.79-.03V40.73c0-.36,.15-.55,.39-.55,.17,0,.28,.08,.42,.28,5.86,7.62,28.08,36.69,32.35,42.16,4.2,5.47,7.48,7.3,11.8,7.3,3.23,0,5.84-1.17,7.61-3.05,1.99-2.15,3.01-5.41,3.01-9.19V34.78c0-4.29-1.14-7.23-3.27-9.4-2.27-2.26-5.47-3.52-9.42-3.52-.28,0-.48,0-.78,.02v49.2c0,.35-.17,.53-.39,.53m-108.69-8.54v13.95c0,4.28,1.13,7.21,3.27,9.36,2.25,2.28,5.64,3.55,9.64,3.55,.32,0,.69,0,1.02-.03v-29.75c0-12.8-3.49-21.41-9.7-28.12-6.4-6.88-15.97-10.86-27.05-10.86-21.25,0-35.98,15.57-35.98,35.83s13.64,33.21,31.33,33.21c13.63,0,21.83-8.11,21.83-17.62,0-3.55-1.11-7.35-3.54-10.97-1.97,10.23-7.62,15.85-16.73,15.85-9.72,0-18.28-7.38-18.28-20.82s8.57-22.25,21.41-22.25c6.43,0,11.61,2.24,15.51,6.09,4.6,4.55,7.27,11.54,7.27,22.58m41.7-54.87C279.15,3.68,275.46,0,270.92,0s-8.21,3.68-8.21,8.2,3.69,8.25,8.21,8.25,8.23-3.7,8.23-8.25m-1.27,81.7V34.53c0-4.31-1.14-7.24-3.26-9.38-2.27-2.3-5.62-3.54-9.65-3.54-.3,0-.7,0-.99,.04v55.37c0,4.28,1.13,7.21,3.26,9.36,2.24,2.28,5.63,3.55,9.63,3.55,.31,0,.69,0,1.02-.03"/><path class="cls-1" d="M77.89,35.88c0-8.03-6.18-14.1-14.98-13.42-18.7,1.43-21.11,22.7-8.94,24.05,12.72,1.42,17.27-12.03,17.52-12.79h.01c.03,.91,.71,19.43-18.17,19.43-9.81,0-14.86-8.02-14.86-14.97,0-10.3,10.02-20.54,24.15-21.09,7.92-.3,13.13,1.57,17.22,5.65,8.32,8.32,5.93,23.94-.81,31.65-10.69,12.24-25.73,15.35-39.74,9.07-14.01-6.28-19.03-24.47-10.54-39.69,3.12-5.6,14.46-18.07,33.96-18.07,24.75,0,37.29,17.54,35.03,38.15-1.74,15.79-11.33,27.23-15.77,32.06-19.53,21.23-48.23,25.46-66.32,14.42C5.68,84.25-.11,73.34,1.18,61c1.11,8.91,5.55,16.62,12.94,21.67,14.78,10.08,39.51,11.46,57.38-8.19-17.96,13.42-38.94,13.21-53.27,3.88C5.08,69.8,1.46,52.7,7.9,35.78c-3.23,15.08,1.96,29.06,13.37,36.34,17.77,11.35,43.66,4.82,59.99-13.46,5.56-6.23,8.75-14.63,8.64-22.3-.17-12.79-9.08-24.27-27.07-24.27s-31.15,14.28-31.15,26.16c0,13.19,9.05,20.72,20.86,20.72s25.37-7.37,25.37-23.1"/></svg>